<?xml version="1.0" encoding="utf-8"?>
<!-- Generator: Adobe Illustrator 15.0.0, SVG Export Plug-In  -->
<!DOCTYPE svg PUBLIC "-//W3C//DTD SVG 1.1//EN" "http://www.w3.org/Graphics/SVG/1.1/DTD/svg11.dtd" [
	<!ENTITY ns_flows "http://ns.adobe.com/Flows/1.0/">
]>
<svg version="1.1"
	 xmlns="http://www.w3.org/2000/svg" xmlns:xlink="http://www.w3.org/1999/xlink" xmlns:a="http://ns.adobe.com/AdobeSVGViewerExtensions/3.0/"
	 x="0px" y="0px" width="30px" height="30px" viewBox="0 0 30 30" enable-background="new 0 0 30 30" xml:space="preserve">
<defs>
</defs>
<path id="Fill-504_2_" fill="#E48D2A" d="M30,15c0,8.283-6.715,15-15,15C6.717,30,0,23.283,0,15S6.717,0,15,0
	C23.285,0,30,6.717,30,15"/>
<path id="Fill-505_2_" fill="#FFFFFF" d="M18.643,19.385c-0.125,0.422-0.408,0.771-0.796,0.976c-0.388,0.213-0.833,0.26-1.255,0.131
	l-4.225-1.261l0.94-3.159l4.224,1.259l0,0C18.403,17.595,18.901,18.514,18.643,19.385 M20.067,12.909
	c0.211,0.388,0.255,0.833,0.13,1.255c-0.258,0.872-1.178,1.368-2.05,1.111l0,0l-4.224-1.259l0.941-3.16l4.224,1.259
	C19.511,12.24,19.857,12.521,20.067,12.909 M21.957,11.885c-0.481-0.892-1.283-1.542-2.257-1.831l-0.558-0.168l0.781-2.625
	l-2.006-0.598L17.135,9.29L15.42,8.778l0.782-2.626l-0.479-0.143l-1.949-0.581L13.02,7.959l-2.375-0.707l-0.67,2.25l2.375,0.708
	l-2.44,8.189l-2.375-0.706l-0.67,2.25l2.374,0.706l-0.637,2.137l0.481,0.146l1.949,0.575l0.665-2.228l1.718,0.512l-0.665,2.232
	l2,0.596l0.665-2.231l0.563,0.167c0.359,0.107,0.726,0.158,1.09,0.158c0.622,0,1.239-0.152,1.803-0.458
	c0.893-0.481,1.542-1.283,1.831-2.257c0.305-1.021,0.154-2.073-0.329-2.938c0.878-0.459,1.579-1.258,1.884-2.28
	C22.547,13.805,22.44,12.777,21.957,11.885"/>
</svg>
