<?xml version="1.0" encoding="utf-8"?>
<!-- Generator: Adobe Illustrator 15.0.0, SVG Export Plug-In  -->
<!DOCTYPE svg PUBLIC "-//W3C//DTD SVG 1.1//EN" "http://www.w3.org/Graphics/SVG/1.1/DTD/svg11.dtd" [
	<!ENTITY ns_flows "http://ns.adobe.com/Flows/1.0/">
]>
<svg version="1.1"
	 xmlns="http://www.w3.org/2000/svg" xmlns:xlink="http://www.w3.org/1999/xlink" xmlns:a="http://ns.adobe.com/AdobeSVGViewerExtensions/3.0/"
	 x="0px" y="0px" width="30px" height="30px" viewBox="0 0 30 30" enable-background="new 0 0 30 30" xml:space="preserve">
<defs>
</defs>
<path id="Fill-491_2_" fill="#3D3E3C" d="M21.054,1.281C13.479-2.063,4.624,1.366,1.281,8.942
	c-3.344,7.575,0.085,16.431,7.662,19.775c7.579,3.346,16.434-0.087,19.778-7.662C32.063,13.478,28.632,4.626,21.054,1.281"/>
<path id="Fill-492_2_" fill="#FFFFFF" d="M20.55,2.421c6.936,3.062,10.086,11.196,7.025,18.129
	c-3.062,6.932-11.194,10.086-18.13,7.023C2.513,24.514-0.64,16.38,2.423,9.445C5.484,2.513,13.618-0.638,20.55,2.421"/>
<path id="Fill-498_2_" fill="#B6B7B9" d="M24.547,20.456l-13.426,5.205c2.404,0.87,5.119,0.913,7.688-0.083
	C21.38,24.577,23.36,22.719,24.547,20.456"/>
<path id="Fill-493_2_" fill="#B6B7B9" d="M25.895,13.718c-0.075-0.649-0.217-1.299-0.414-1.942L5.083,19.677
	c0.289,0.612,0.62,1.182,1.001,1.72L25.895,13.718z"/>
<path id="Fill-494_2_" fill="#B6B7B9" d="M24.822,10.122c-0.301-0.608-0.651-1.174-1.046-1.7L4.084,16.056
	c0.063,0.655,0.183,1.31,0.368,1.957L24.822,10.122z"/>
<path id="Fill-495_2_" fill="#B6B7B9" d="M22.506,7.001c-0.562-0.528-1.18-0.991-1.838-1.389l-16.182,6.27
	c-0.218,0.738-0.359,1.498-0.425,2.266L22.506,7.001z"/>
<path id="Fill-496_2_" fill="#B6B7B9" d="M18.41,4.576c-2.324-0.761-4.915-0.756-7.374,0.196C8.578,5.726,6.659,7.467,5.453,9.595
	L18.41,4.576z"/>
<path id="Fill-497_2_" fill="#B6B7B9" d="M25.588,17.855c0.196-0.731,0.316-1.481,0.363-2.246L7.319,22.832
	c0.542,0.529,1.138,1.005,1.775,1.414L25.588,17.855z"/>
<circle fill="none" stroke="#040000" stroke-width="0.25" stroke-miterlimit="10" cx="15.091" cy="15.18" r="10.974"/>
<polygon fill="#040000" points="15.162,19.107 16.061,15.715 18.196,14.935 18.728,12.941 18.705,12.898 16.603,13.667 
	18.121,7.966 13.828,7.966 11.844,15.401 10.197,16.008 9.645,18.055 11.302,17.459 10.133,21.837 21.556,21.837 22.282,19.107 "/>
<polygon fill="none" stroke="#040000" stroke-width="0.25" stroke-miterlimit="10" points="15.162,19.107 16.061,15.715 
	18.196,14.935 18.728,12.941 18.705,12.898 16.603,13.667 18.121,7.966 13.828,7.966 11.844,15.401 10.197,16.008 9.645,18.055 
	11.302,17.459 10.133,21.837 21.556,21.837 22.282,19.107 "/>
<polygon fill="#FFFFFF" points="14.922,18.867 15.821,15.475 17.954,14.695 18.487,12.702 18.467,12.658 16.363,13.427 
	17.881,7.727 13.588,7.727 11.604,15.161 9.957,15.769 9.404,17.815 11.062,17.219 9.893,21.598 21.316,21.598 22.042,18.867 "/>
<polygon fill="none" stroke="#040000" stroke-width="0.25" stroke-miterlimit="10" points="14.922,18.867 15.821,15.475 
	17.954,14.695 18.487,12.702 18.467,12.658 16.363,13.427 17.881,7.727 13.588,7.727 11.604,15.161 9.957,15.769 9.404,17.815 
	11.062,17.219 9.893,21.598 21.316,21.598 22.042,18.867 "/>
<linearGradient id="SVGID_1_" gradientUnits="userSpaceOnUse" x1="292.3945" y1="420.8188" x2="304.1816" y2="420.8188" gradientTransform="matrix(1 0 0 1 -282.5547 -406.1406)">
	<stop  offset="0" style="stop-color:#FFFFFF"/>
	<stop  offset="1" style="stop-color:#040000"/>
</linearGradient>
<polygon fill="url(#SVGID_1_)" points="14.452,19.208 15.513,15.302 17.758,14.458 18.044,13.217 15.806,14.017 17.429,8.125 
	14.019,8.125 12.027,15.395 10.279,15.962 9.84,17.3 11.597,16.744 10.438,21.233 21.028,21.233 21.626,19.208 "/>
</svg>
