<?xml version="1.0" encoding="utf-8"?>
<!-- Generator: Adobe Illustrator 15.0.0, SVG Export Plug-In  -->
<!DOCTYPE svg PUBLIC "-//W3C//DTD SVG 1.1//EN" "http://www.w3.org/Graphics/SVG/1.1/DTD/svg11.dtd" [
	<!ENTITY ns_flows "http://ns.adobe.com/Flows/1.0/">
]>
<svg version="1.1"
	 xmlns="http://www.w3.org/2000/svg" xmlns:xlink="http://www.w3.org/1999/xlink" xmlns:a="http://ns.adobe.com/AdobeSVGViewerExtensions/3.0/"
	 x="0px" y="0px" width="30px" height="30px" viewBox="0 0 30 30" enable-background="new 0 0 30 30" xml:space="preserve">
<defs>
</defs>
<path fill="#040000" d="M30,14.999C30,23.285,23.285,30,14.998,30C6.717,30,0,23.285,0,14.999C0,6.717,6.717,0,14.998,0
	C23.283,0,30,6.717,30,14.999z"/>
<path fill="#F5CA48" d="M27.75,14.999c0,7.043-5.709,12.751-12.752,12.751c-7.041,0-12.745-5.707-12.745-12.751
	c0-7.041,5.705-12.75,12.745-12.75C22.041,2.25,27.75,7.958,27.75,14.999z"/>
<polygon fill="#040000" points="8.37,6.86 8.37,10.618 15.366,10.618 8.37,19.212 8.37,23.143 13.076,23.143 13.076,26.249 
	16.962,26.249 16.962,23.143 21.626,23.143 21.626,19.212 14.116,19.212 21.626,10.661 21.626,6.86 16.962,6.86 16.962,3.749 
	13.076,3.749 13.076,6.86 "/>
</svg>
